<!-- icon666.com - MILLIONS vector ICONS FREE --><svg id="Layer_1" enable-background="new 0 0 128 128" viewBox="0 0 128 128" xmlns="http://www.w3.org/2000/svg"><path d="m119.549 50.11-47.952-38c-3.291-2.608-7.889-2.608-11.18 0l-47.967 38.011c-3.829 3.034-4.723 8.452-2.036 12.334 1.436 2.075 3.595 3.422 6.081 3.792 2.454.368 4.975-.308 6.918-1.848l1.344-1.065v51.22c0 4.021 3.271 7.292 7.292 7.292h67.917c4.021 0 7.292-3.271 7.292-7.292v-51.22l1.342 1.066c1.607 1.273 3.538 1.947 5.584 1.947 2.792 0 5.38-1.261 7.099-3.46 3.035-3.883 2.256-9.615-1.734-12.777z" fill="#e6e7e8"></path><path d="m114.928 46.893-47.952-38c-2.911-2.307-7.026-2.307-9.937 0l-47.968 38.012c-3.34 2.647-4.26 7.478-1.835 10.982 2.656 3.839 7.954 4.582 11.556 1.729l2.965-2.35v53.288c0 3.475 2.817 6.292 6.292 6.292h67.917c3.475 0 6.292-2.817 6.292-6.292v-53.288l2.965 2.35c1.47 1.165 3.223 1.73 4.963 1.73 2.377 0 4.731-1.054 6.31-3.076 2.736-3.502 1.916-8.616-1.568-11.377z" fill="#fff"></path><path d="m105.221 59.616c1.47 1.165 3.223 1.73 4.963 1.73 2.377 0 4.731-1.055 6.31-3.076.781-.999 1.262-2.13 1.485-3.3-.362-1.939-1.405-3.772-3.052-5.078l-47.952-38c-2.911-2.307-7.026-2.307-9.937 0l-47.967 38.013c-1.64 1.3-2.692 3.126-3.056 5.064.196 1.021.595 2.014 1.221 2.918 2.656 3.839 7.954 4.582 11.556 1.729l2.965-2.35v3 50.288c0 3.475 2.817 6.292 6.292 6.292h67.917c3.475 0 6.292-2.817 6.292-6.292v-50.288-3z" fill="#6dc9f7"></path><path d="m55.513 80.609-17.21 17.21c-1.98 1.98-2.13 5.228-.186 7.244 1.98 2.054 5.25 2.076 7.259.068l17.333-17.333zm-11.401 22.401c-1.051 1.051-2.756 1.051-3.807 0s-1.051-2.756 0-3.807 2.756-1.051 3.807 0 1.051 2.756 0 3.807z" fill="#fa759e"></path><path d="m90.504 61.923-3.351 3.351c-1.382 1.382-3.624 1.382-5.006 0l-4.106-4.106c-1.382-1.382-1.382-3.624 0-5.006l3.353-3.353c.91-.91.29-2.46-.995-2.506-3.578-.127-7.197 1.204-9.89 3.998-3.431 3.559-4.447 8.694-2.992 13.176.17.523.032 1.097-.357 1.486l-5.671 5.671 7.196 7.189 5.659-5.659c.39-.39.966-.528 1.49-.356 4.543 1.496 9.743.438 13.357-3.175 2.674-2.674 3.947-6.217 3.822-9.72-.047-1.284-1.6-1.899-2.509-.99z" fill="#fa759e"></path><path d="m38.211 63.323 5.958-5.994-2.534-2.532c-1.167-1.167-3.058-1.168-4.227-.003l-1.749 1.744c-1.171 1.168-1.172 3.063-.003 4.232z" fill="#ffd7e5"></path><path d="m87.092 100.213-35.015-34.983-5.976 5.976 34.89 34.858c1.636 1.636 4.324 1.802 6.008.216 1.743-1.642 1.774-4.386.093-6.067z" fill="#ffd7e5"></path><path d="m57.867 56.975-5.458-5.458c-.68-.68-1.783-.68-2.464 0l-15.993 16.092 1.707 11.575c.68.68 1.783.68 2.464 0l19.745-19.745c.679-.68.679-1.783-.001-2.464z" fill="#fa759e"></path><g fill="#3a2c60"><path d="m61.75 115.847h-10c-.552 0-1 .448-1 1s.448 1 1 1h10c.552 0 1-.448 1-1s-.448-1-1-1z"></path><path d="m115.549 46.11-47.952-38c-3.291-2.608-7.889-2.608-11.18 0l-47.967 38.011c-3.829 3.034-4.723 8.452-2.036 12.334 1.436 2.075 3.595 3.422 6.081 3.792 2.454.368 4.975-.308 6.918-1.848l1.344-1.065v51.22c0 4.021 3.271 7.292 7.292 7.292h18.951c.552 0 1-.448 1-1s-.448-1-1-1h-18.952c-2.918 0-5.292-2.374-5.292-5.292v-53.288c0-.384-.219-.733-.565-.9-.345-.167-.755-.122-1.056.117l-2.965 2.35c-1.534 1.215-3.444 1.725-5.381 1.438-1.933-.288-3.613-1.336-4.731-2.952-2.088-3.019-1.371-7.249 1.634-9.63l47.967-38.012c2.559-2.028 6.135-2.029 8.695 0l47.952 38c3.132 2.482 3.761 6.958 1.401 9.978-1.337 1.71-3.35 2.691-5.522 2.691-1.591 0-3.092-.523-4.342-1.514l-2.965-2.35c-.3-.239-.71-.284-1.056-.117s-.565.517-.565.9v53.288c0 2.918-2.374 5.292-5.292 5.292h-29.465c-.552 0-1 .448-1 1s.448 1 1 1h29.465c4.021 0 7.292-3.271 7.292-7.292v-51.22l1.343 1.067c1.607 1.273 3.538 1.947 5.584 1.947 2.792 0 5.38-1.261 7.099-3.46 3.035-3.883 2.256-9.615-1.734-12.777z"></path><path d="m37.596 97.113c-2.396 2.396-2.485 6.273-.199 8.644 1.144 1.187 2.68 1.849 4.327 1.864h.058c1.625 0 3.151-.631 4.302-1.782l16.626-16.626 17.575 17.559c1.067 1.068 2.481 1.607 3.879 1.607 1.281 0 2.548-.454 3.521-1.371 1.039-.979 1.624-2.302 1.645-3.727.021-1.426-.522-2.766-1.531-3.775l-17.7-17.684 4.951-4.951c.125-.123.306-.166.471-.113 5.084 1.674 10.595.365 14.376-3.417 2.753-2.754 4.253-6.567 4.114-10.463-.036-1-.636-1.848-1.566-2.213-.928-.366-1.942-.154-2.648.551l-3.351 3.351c-.99.989-2.602.99-3.592 0l-4.106-4.106c-.479-.48-.744-1.118-.744-1.796s.264-1.316.744-1.796l3.353-3.353c.705-.705.916-1.718.551-2.645-.366-.931-1.216-1.532-2.218-1.568-4-.14-7.874 1.427-10.646 4.303-3.611 3.747-4.846 9.18-3.223 14.179.054.167.011.347-.113.47l-4.964 4.964-7.998-7.991 5.083-5.083c1.069-1.069 1.069-2.809 0-3.877l-5.458-5.458c-1.069-1.069-2.809-1.069-3.88.002l-5.07 5.101-1.824-1.822c-1.555-1.555-4.084-1.556-5.64-.003l-1.749 1.744c-.756.754-1.172 1.756-1.173 2.823s.415 2.07 1.169 2.824l1.849 1.847-3.556 3.578c-.222.224-.326.539-.28.851l1.707 11.575c.031.212.13.409.282.561.518.518 1.207.804 1.939.804s1.421-.286 1.939-.804l7.271-7.271 7.998 7.99zm7.073 7.311c-.782.782-1.829 1.213-2.927 1.196-1.105-.01-2.137-.455-2.905-1.251-1.534-1.592-1.457-4.212.173-5.842l16.503-16.503 5.781 5.776zm23.198-34.755c.658-.658.888-1.617.601-2.502-1.395-4.294-.337-8.959 2.76-12.173 2.28-2.365 5.433-3.7 8.708-3.7.142 0 .285.002.427.008.283.01.394.214.428.301.042.105.083.311-.104.498l-3.353 3.353c-1.77 1.77-1.77 4.65 0 6.42l4.106 4.106c1.769 1.77 4.65 1.771 6.42 0l3.351-3.351c.188-.189.396-.147.502-.104.086.034.29.144.299.424.12 3.343-1.167 6.615-3.529 8.978-3.246 3.246-7.974 4.368-12.336 2.932-.889-.293-1.85-.063-2.511.598l-4.952 4.952-5.781-5.776zm-31.503-9.605c-.376-.376-.583-.877-.583-1.409s.208-1.033.585-1.409l1.749-1.744c.776-.774 2.038-.774 2.814.002l1.828 1.826-4.548 4.576zm1.052 18.412c-.216.215-.56.273-.828.153l-1.574-10.671 15.638-15.733c.289-.291.761-.29 1.05 0l5.458 5.458c.289.29.289.76 0 1.049zm14.661-11.833 34.308 34.277c.622.623.958 1.45.944 2.33-.013.879-.374 1.697-1.016 2.301-1.255 1.183-3.325 1.095-4.616-.195l-34.182-34.151z"></path><path d="m44.819 98.496c-1.44-1.44-3.783-1.439-5.221 0-1.439 1.439-1.439 3.782 0 5.222.72.72 1.665 1.08 2.61 1.08.946 0 1.891-.36 2.611-1.08 1.439-1.44 1.439-3.783 0-5.222zm-1.414 3.808c-.64.639-1.754.639-2.393 0-.66-.66-.66-1.734 0-2.394.66-.659 1.732-.66 2.393 0 .659.66.659 1.733 0 2.394z"></path></g></svg>